<?xml version="1.0" standalone="no"?>
<!DOCTYPE svg PUBLIC "-//W3C//DTD SVG 20010904//EN"
 "http://www.w3.org/TR/2001/REC-SVG-20010904/DTD/svg10.dtd">
<svg version="1.0" xmlns="http://www.w3.org/2000/svg"
 width="64.000000pt" height="64.000000pt" viewBox="0 0 64.000000 64.000000"
 preserveAspectRatio="xMidYMid meet">

<g transform="translate(0.000000,64.000000) scale(0.100000,-0.100000)"
fill="#000000" stroke="none">
<path d="M160 315 l0 -165 160 0 160 0 0 50 c0 43 -3 50 -20 50 -16 0 -20 -7
-20 -30 l0 -30 -120 0 -120 0 0 125 0 125 30 0 c23 0 30 4 30 20 0 17 -7 20
-50 20 l-50 0 0 -165z"/>
<path d="M358 447 l32 -33 -50 -49 c-47 -46 -49 -50 -33 -67 16 -18 19 -17 68
32 l51 50 27 -27 27 -28 0 78 0 77 -77 0 -77 0 32 -33z"/>
</g>
</svg>
